<?xml version="1.0" encoding="utf-8"?>
<!-- Generator: Adobe Illustrator 22.0.0, SVG Export Plug-In . SVG Version: 6.00 Build 0)  -->
<svg version="1.1" id="Layer_1" xmlns="http://www.w3.org/2000/svg" xmlns:xlink="http://www.w3.org/1999/xlink" x="0px" y="0px"
	 viewBox="0 0 793.3 401.7" style="enable-background:new 0 0 793.3 401.7;" xml:space="preserve">
<style type="text/css">
	.st0{fill:url(#SVGID_1_);}
	.st1{fill:url(#SVGID_2_);}
	.st2{fill:url(#SVGID_3_);}
	.st3{fill:url(#SVGID_4_);}
	.st4{fill:url(#SVGID_5_);}
	.st5{fill:url(#SVGID_6_);}
	.st6{fill:url(#SVGID_7_);}
	.st7{fill:url(#SVGID_8_);}
	.st8{fill:url(#SVGID_9_);}
	.st9{fill:url(#SVGID_10_);}
	.st10{fill:url(#SVGID_11_);}
	.st11{fill:url(#SVGID_12_);}
	.st12{fill:url(#SVGID_13_);}
	.st13{fill:url(#SVGID_14_);}
	.st14{fill:url(#SVGID_15_);}
	.st15{fill:url(#SVGID_16_);}
	.st16{fill:url(#SVGID_17_);}
	.st17{fill:url(#SVGID_18_);}
	.st18{fill:url(#SVGID_19_);}
	.st19{fill:url(#SVGID_20_);}
	.st20{fill:url(#SVGID_21_);}
	.st21{fill:url(#SVGID_22_);}
	.st22{fill:url(#SVGID_23_);}
	.st23{fill:url(#SVGID_24_);}
	.st24{fill:url(#SVGID_25_);}
	.st25{fill:url(#SVGID_26_);}
	.st26{fill:none;stroke:#FFFFFF;stroke-width:0.6687;}
	.st27{fill:url(#SVGID_27_);}
	.st28{fill:#FFFFFF;}
</style>
<g>
	<linearGradient id="SVGID_1_" gradientUnits="userSpaceOnUse" x1="84.3932" y1="-1.9973" x2="84.4012" y2="-1.9978">
		<stop  offset="0" style="stop-color:#EE3124"/>
		<stop  offset="0.1446" style="stop-color:#C1231B"/>
		<stop  offset="0.317" style="stop-color:#941109"/>
		<stop  offset="0.4833" style="stop-color:#710000"/>
		<stop  offset="0.6389" style="stop-color:#540000"/>
		<stop  offset="0.7814" style="stop-color:#3B0000"/>
		<stop  offset="0.9063" style="stop-color:#180000"/>
		<stop  offset="1" style="stop-color:#000000"/>
	</linearGradient>
	<polygon class="st0" points="84.4,-2 84.4,-2 84.4,-2 	"/>
	<linearGradient id="SVGID_2_" gradientUnits="userSpaceOnUse" x1="110.6285" y1="6.8162" x2="110.6375" y2="6.8157">
		<stop  offset="0" style="stop-color:#EE3124"/>
		<stop  offset="0.1446" style="stop-color:#C1231B"/>
		<stop  offset="0.317" style="stop-color:#941109"/>
		<stop  offset="0.4833" style="stop-color:#710000"/>
		<stop  offset="0.6389" style="stop-color:#540000"/>
		<stop  offset="0.7814" style="stop-color:#3B0000"/>
		<stop  offset="0.9063" style="stop-color:#180000"/>
		<stop  offset="1" style="stop-color:#000000"/>
	</linearGradient>
	<polygon class="st1" points="110.6,6.8 110.6,6.8 110.6,6.8 	"/>
	<linearGradient id="SVGID_3_" gradientUnits="userSpaceOnUse" x1="304.1172" y1="71.8329" x2="304.1225" y2="71.8326">
		<stop  offset="0" style="stop-color:#EE3124"/>
		<stop  offset="0.1446" style="stop-color:#C1231B"/>
		<stop  offset="0.317" style="stop-color:#941109"/>
		<stop  offset="0.4833" style="stop-color:#710000"/>
		<stop  offset="0.6389" style="stop-color:#540000"/>
		<stop  offset="0.7814" style="stop-color:#3B0000"/>
		<stop  offset="0.9063" style="stop-color:#180000"/>
		<stop  offset="1" style="stop-color:#000000"/>
	</linearGradient>
	<polygon class="st2" points="304.1,71.8 304.1,71.8 304.1,71.8 	"/>
	<linearGradient id="SVGID_4_" gradientUnits="userSpaceOnUse" x1="779.5308" y1="231.5707" x2="779.5356" y2="231.5704">
		<stop  offset="0" style="stop-color:#EE3124"/>
		<stop  offset="0.1446" style="stop-color:#C1231B"/>
		<stop  offset="0.317" style="stop-color:#941109"/>
		<stop  offset="0.4833" style="stop-color:#710000"/>
		<stop  offset="0.6389" style="stop-color:#540000"/>
		<stop  offset="0.7814" style="stop-color:#3B0000"/>
		<stop  offset="0.9063" style="stop-color:#180000"/>
		<stop  offset="1" style="stop-color:#000000"/>
	</linearGradient>
	<polygon class="st3" points="779.5,231.6 779.5,231.6 779.5,231.6 	"/>
	<linearGradient id="SVGID_5_" gradientUnits="userSpaceOnUse" x1="15.0822" y1="300.9467" x2="809.26" y2="253.3869">
		<stop  offset="0" style="stop-color:#EE3124"/>
		<stop  offset="0.1446" style="stop-color:#C1231B"/>
		<stop  offset="0.317" style="stop-color:#941109"/>
		<stop  offset="0.4833" style="stop-color:#710000"/>
		<stop  offset="0.6389" style="stop-color:#540000"/>
		<stop  offset="0.7814" style="stop-color:#3B0000"/>
		<stop  offset="0.9063" style="stop-color:#180000"/>
		<stop  offset="1" style="stop-color:#000000"/>
	</linearGradient>
	<polygon class="st4" points="778.2,232.2 762.5,239.4 762.4,279.3 	"/>
	<linearGradient id="SVGID_6_" gradientUnits="userSpaceOnUse" x1="751.2975" y1="222.084" x2="751.3099" y2="222.0832">
		<stop  offset="0" style="stop-color:#EE3124"/>
		<stop  offset="0.1446" style="stop-color:#C1231B"/>
		<stop  offset="0.317" style="stop-color:#941109"/>
		<stop  offset="0.4833" style="stop-color:#710000"/>
		<stop  offset="0.6389" style="stop-color:#540000"/>
		<stop  offset="0.7814" style="stop-color:#3B0000"/>
		<stop  offset="0.9063" style="stop-color:#180000"/>
		<stop  offset="1" style="stop-color:#000000"/>
	</linearGradient>
	<polygon class="st5" points="751.3,222.1 751.3,222.1 751.3,222.1 	"/>
	<linearGradient id="SVGID_7_" gradientUnits="userSpaceOnUse" x1="11.6276" y1="243.1911" x2="805.7999" y2="195.6316">
		<stop  offset="0" style="stop-color:#EE3124"/>
		<stop  offset="0.1446" style="stop-color:#C1231B"/>
		<stop  offset="0.317" style="stop-color:#941109"/>
		<stop  offset="0.4833" style="stop-color:#710000"/>
		<stop  offset="0.6389" style="stop-color:#540000"/>
		<stop  offset="0.7814" style="stop-color:#3B0000"/>
		<stop  offset="0.9063" style="stop-color:#180000"/>
		<stop  offset="1" style="stop-color:#000000"/>
	</linearGradient>
	<polygon class="st6" points="615.3,215.1 630.1,220.1 637.7,197.6 622.9,192.6 	"/>
	<linearGradient id="SVGID_8_" gradientUnits="userSpaceOnUse" x1="614.8046" y1="176.2263" x2="614.8466" y2="176.2238">
		<stop  offset="0" style="stop-color:#EE3124"/>
		<stop  offset="0.1446" style="stop-color:#C1231B"/>
		<stop  offset="0.317" style="stop-color:#941109"/>
		<stop  offset="0.4833" style="stop-color:#710000"/>
		<stop  offset="0.6389" style="stop-color:#540000"/>
		<stop  offset="0.7814" style="stop-color:#3B0000"/>
		<stop  offset="0.9063" style="stop-color:#180000"/>
		<stop  offset="1" style="stop-color:#000000"/>
	</linearGradient>
	<polygon class="st7" points="614.8,176.2 614.8,176.2 614.8,176.2 	"/>
	<linearGradient id="SVGID_9_" gradientUnits="userSpaceOnUse" x1="10.5716" y1="225.664" x2="804.7549" y2="178.1039">
		<stop  offset="0" style="stop-color:#EE3124"/>
		<stop  offset="0.1446" style="stop-color:#C1231B"/>
		<stop  offset="0.317" style="stop-color:#941109"/>
		<stop  offset="0.4833" style="stop-color:#710000"/>
		<stop  offset="0.6389" style="stop-color:#540000"/>
		<stop  offset="0.7814" style="stop-color:#3B0000"/>
		<stop  offset="0.9063" style="stop-color:#180000"/>
		<stop  offset="1" style="stop-color:#000000"/>
	</linearGradient>
	<polygon class="st8" points="587.8,167.9 571.9,175.5 571.8,215.2 	"/>
	<linearGradient id="SVGID_10_" gradientUnits="userSpaceOnUse" x1="708.0984" y1="207.5743" x2="708.1241" y2="207.5728">
		<stop  offset="0" style="stop-color:#EE3124"/>
		<stop  offset="0.1446" style="stop-color:#C1231B"/>
		<stop  offset="0.317" style="stop-color:#941109"/>
		<stop  offset="0.4833" style="stop-color:#710000"/>
		<stop  offset="0.6389" style="stop-color:#540000"/>
		<stop  offset="0.7814" style="stop-color:#3B0000"/>
		<stop  offset="0.9063" style="stop-color:#180000"/>
		<stop  offset="1" style="stop-color:#000000"/>
	</linearGradient>
	<polygon class="st9" points="708.1,207.6 708.1,207.6 708.1,207.6 	"/>
	<linearGradient id="SVGID_11_" gradientUnits="userSpaceOnUse" x1="666.3668" y1="193.5495" x2="666.382" y2="193.5486">
		<stop  offset="0" style="stop-color:#EE3124"/>
		<stop  offset="0.1446" style="stop-color:#C1231B"/>
		<stop  offset="0.317" style="stop-color:#941109"/>
		<stop  offset="0.4833" style="stop-color:#710000"/>
		<stop  offset="0.6389" style="stop-color:#540000"/>
		<stop  offset="0.7814" style="stop-color:#3B0000"/>
		<stop  offset="0.9063" style="stop-color:#180000"/>
		<stop  offset="1" style="stop-color:#000000"/>
	</linearGradient>
	<polygon class="st10" points="666.4,193.5 666.4,193.5 666.4,193.6 	"/>
	<linearGradient id="SVGID_12_" gradientUnits="userSpaceOnUse" x1="4.5156" y1="124.5085" x2="798.7003" y2="76.9483">
		<stop  offset="0" style="stop-color:#EE3124"/>
		<stop  offset="0.1446" style="stop-color:#C1231B"/>
		<stop  offset="0.317" style="stop-color:#941109"/>
		<stop  offset="0.4833" style="stop-color:#710000"/>
		<stop  offset="0.6389" style="stop-color:#540000"/>
		<stop  offset="0.7814" style="stop-color:#3B0000"/>
		<stop  offset="0.9063" style="stop-color:#180000"/>
		<stop  offset="1" style="stop-color:#000000"/>
	</linearGradient>
	<polygon class="st11" points="331.9,81.5 315.9,89.3 315.8,129.2 	"/>
	<linearGradient id="SVGID_13_" gradientUnits="userSpaceOnUse" x1="-5.098850e-02" y1="48.1599" x2="794.1158" y2="0.6008">
		<stop  offset="0" style="stop-color:#EE3124"/>
		<stop  offset="0.1446" style="stop-color:#C1231B"/>
		<stop  offset="0.317" style="stop-color:#941109"/>
		<stop  offset="0.4833" style="stop-color:#710000"/>
		<stop  offset="0.6389" style="stop-color:#540000"/>
		<stop  offset="0.7814" style="stop-color:#3B0000"/>
		<stop  offset="0.9063" style="stop-color:#180000"/>
		<stop  offset="1" style="stop-color:#000000"/>
	</linearGradient>
	<polygon class="st12" points="138.8,16.3 122.7,23.9 122.6,64.3 	"/>
	<linearGradient id="SVGID_14_" gradientUnits="userSpaceOnUse" x1="9.7746" y1="212.3877" x2="803.924" y2="164.8296">
		<stop  offset="0" style="stop-color:#EE3124"/>
		<stop  offset="0.1446" style="stop-color:#C1231B"/>
		<stop  offset="0.317" style="stop-color:#941109"/>
		<stop  offset="0.4833" style="stop-color:#710000"/>
		<stop  offset="0.6389" style="stop-color:#540000"/>
		<stop  offset="0.7814" style="stop-color:#3B0000"/>
		<stop  offset="0.9063" style="stop-color:#180000"/>
		<stop  offset="1" style="stop-color:#000000"/>
	</linearGradient>
	<polygon class="st13" points="749.6,266.9 733.7,314.4 720.7,310 750,222.7 735.2,230.4 716,223.9 708.4,246.6 727.4,252.9 
		723.2,265.2 704.3,258.9 694.7,287.6 713.9,294 709.7,306.3 677.6,295.5 706.9,208.2 668.6,227.3 653,273.6 672.4,280.1 
		668.3,292.4 635.9,281.5 665.2,194.3 650,203.8 625.1,277.9 612.2,273.6 625.9,232.7 611.1,227.7 597.4,268.6 584.4,264.2 
		613.8,176.7 596.1,185.5 571.2,259.8 559,255.7 559.1,202.8 543.1,250.4 530.2,246 559.6,158.4 542.1,167.1 517,241.6 476.2,227.9 
		505.6,140.2 491.6,147.1 465.8,224.2 431.4,212.6 435.5,200.4 457.1,207.6 478.4,144.1 466.4,140 470.3,128.3 415.4,155.7 
		434.6,162.1 419,208.5 378.1,194.7 382.2,182.4 410.3,191.9 417.7,170 389.6,160.5 407.5,107.1 395.7,113 369.1,191.9 356.2,187.5 
		369.9,146.7 355.1,141.7 341.4,182.6 328.4,178.2 357.9,90.3 340.2,99.1 315.2,173.8 303,169.7 303.1,116.8 287.1,164.3 274.1,160 
		303.7,72 288.1,79.8 270,133.6 263.6,131.4 264.6,156.8 250.6,152.1 249.9,126.8 242.3,124.2 234.7,146.7 221.7,142.4 251.3,54.4 
		236.3,62.7 217.1,56.3 209.5,78.9 228.4,85.3 224.3,97.6 205.3,91.2 195.7,119.9 214.9,126.4 210.8,138.7 178.6,127.9 208.2,39.9 
		195.4,49 182.4,44.6 156.9,120.6 143.9,116.2 169.5,40.3 156.3,35.9 160.4,23.7 148.1,31.2 122,108.8 109.8,104.8 109.9,51.9 
		93.9,99.4 80.9,95.1 110.6,6.8 92.9,15.6 92.9,15.5 67.7,90.6 54.7,86.3 84.4,-2 1,58.9 1,285.1 445.9,396.2 761.7,323.8 
		749.5,319.7 	"/>
	<linearGradient id="SVGID_15_" gradientUnits="userSpaceOnUse" x1="10.2741" y1="220.64" x2="804.4529" y2="173.0801">
		<stop  offset="0" style="stop-color:#EE3124"/>
		<stop  offset="0.1446" style="stop-color:#C1231B"/>
		<stop  offset="0.317" style="stop-color:#941109"/>
		<stop  offset="0.4833" style="stop-color:#710000"/>
		<stop  offset="0.6389" style="stop-color:#540000"/>
		<stop  offset="0.7814" style="stop-color:#3B0000"/>
		<stop  offset="0.9063" style="stop-color:#180000"/>
		<stop  offset="1" style="stop-color:#000000"/>
	</linearGradient>
	<polygon class="st14" points="493.3,219.9 508.3,225 529.7,161.3 514.6,156.3 	"/>
	<linearGradient id="SVGID_16_" gradientUnits="userSpaceOnUse" x1="138.8543" y1="16.3083" x2="138.8905" y2="16.3061">
		<stop  offset="0" style="stop-color:#EE3124"/>
		<stop  offset="0.1446" style="stop-color:#C1231B"/>
		<stop  offset="0.317" style="stop-color:#941109"/>
		<stop  offset="0.4833" style="stop-color:#710000"/>
		<stop  offset="0.6389" style="stop-color:#540000"/>
		<stop  offset="0.7814" style="stop-color:#3B0000"/>
		<stop  offset="0.9063" style="stop-color:#180000"/>
		<stop  offset="1" style="stop-color:#000000"/>
	</linearGradient>
	<polygon class="st15" points="138.9,16.3 138.9,16.3 138.9,16.3 	"/>
	<linearGradient id="SVGID_17_" gradientUnits="userSpaceOnUse" x1="11.8533" y1="161.3699" x2="796.7766" y2="114.3643">
		<stop  offset="0" style="stop-color:#EE3124"/>
		<stop  offset="0.1446" style="stop-color:#C1231B"/>
		<stop  offset="0.317" style="stop-color:#941109"/>
		<stop  offset="0.4833" style="stop-color:#710000"/>
		<stop  offset="0.6389" style="stop-color:#540000"/>
		<stop  offset="0.7814" style="stop-color:#3B0000"/>
		<stop  offset="0.9063" style="stop-color:#180000"/>
		<stop  offset="1" style="stop-color:#000000"/>
	</linearGradient>
	<polygon class="st16" points="416.5,123.3 407,151.6 445,132.8 	"/>
	<linearGradient id="SVGID_18_" gradientUnits="userSpaceOnUse" x1="5.5771" y1="142.2032" x2="799.756" y2="94.6433">
		<stop  offset="0" style="stop-color:#EE3124"/>
		<stop  offset="0.1446" style="stop-color:#C1231B"/>
		<stop  offset="0.317" style="stop-color:#941109"/>
		<stop  offset="0.4833" style="stop-color:#710000"/>
		<stop  offset="0.6389" style="stop-color:#540000"/>
		<stop  offset="0.7814" style="stop-color:#3B0000"/>
		<stop  offset="0.9063" style="stop-color:#180000"/>
		<stop  offset="1" style="stop-color:#000000"/>
	</linearGradient>
	<polygon class="st17" points="359.3,129.1 374.1,134.1 381.7,111.6 366.9,106.6 	"/>
	<linearGradient id="SVGID_19_" gradientUnits="userSpaceOnUse" x1="588.7116" y1="167.4504" x2="588.723" y2="167.4497">
		<stop  offset="0" style="stop-color:#EE3124"/>
		<stop  offset="0.1446" style="stop-color:#C1231B"/>
		<stop  offset="0.317" style="stop-color:#941109"/>
		<stop  offset="0.4833" style="stop-color:#710000"/>
		<stop  offset="0.6389" style="stop-color:#540000"/>
		<stop  offset="0.7814" style="stop-color:#3B0000"/>
		<stop  offset="0.9063" style="stop-color:#180000"/>
		<stop  offset="1" style="stop-color:#000000"/>
	</linearGradient>
	<polygon class="st18" points="588.7,167.4 588.7,167.4 588.7,167.5 	"/>
	<linearGradient id="SVGID_20_" gradientUnits="userSpaceOnUse" x1="3.6026" y1="109.1401" x2="797.7686" y2="61.581">
		<stop  offset="0" style="stop-color:#EE3124"/>
		<stop  offset="0.1446" style="stop-color:#C1231B"/>
		<stop  offset="0.317" style="stop-color:#941109"/>
		<stop  offset="0.4833" style="stop-color:#710000"/>
		<stop  offset="0.6389" style="stop-color:#540000"/>
		<stop  offset="0.7814" style="stop-color:#3B0000"/>
		<stop  offset="0.9063" style="stop-color:#180000"/>
		<stop  offset="1" style="stop-color:#000000"/>
	</linearGradient>
	<polygon class="st19" points="275.2,75.8 260.2,70.8 246.5,111.7 261.4,116.7 	"/>
	<linearGradient id="SVGID_21_" gradientUnits="userSpaceOnUse" x1="208.4325" y1="39.6864" x2="208.4668" y2="39.6843">
		<stop  offset="0" style="stop-color:#EE3124"/>
		<stop  offset="0.1446" style="stop-color:#C1231B"/>
		<stop  offset="0.317" style="stop-color:#941109"/>
		<stop  offset="0.4833" style="stop-color:#710000"/>
		<stop  offset="0.6389" style="stop-color:#540000"/>
		<stop  offset="0.7814" style="stop-color:#3B0000"/>
		<stop  offset="0.9063" style="stop-color:#180000"/>
		<stop  offset="1" style="stop-color:#000000"/>
	</linearGradient>
	<polygon class="st20" points="208.4,39.7 208.4,39.7 208.5,39.7 	"/>
	<linearGradient id="SVGID_22_" gradientUnits="userSpaceOnUse" x1="560.483" y1="157.9742" x2="560.4916" y2="157.9736">
		<stop  offset="0" style="stop-color:#EE3124"/>
		<stop  offset="0.1446" style="stop-color:#C1231B"/>
		<stop  offset="0.317" style="stop-color:#941109"/>
		<stop  offset="0.4833" style="stop-color:#710000"/>
		<stop  offset="0.6389" style="stop-color:#540000"/>
		<stop  offset="0.7814" style="stop-color:#3B0000"/>
		<stop  offset="0.9063" style="stop-color:#180000"/>
		<stop  offset="1" style="stop-color:#000000"/>
	</linearGradient>
	<polygon class="st21" points="560.5,158 560.5,158 560.5,158 	"/>
	<linearGradient id="SVGID_23_" gradientUnits="userSpaceOnUse" x1="332.335" y1="81.3085" x2="332.3407" y2="81.3082">
		<stop  offset="0" style="stop-color:#EE3124"/>
		<stop  offset="0.1446" style="stop-color:#C1231B"/>
		<stop  offset="0.317" style="stop-color:#941109"/>
		<stop  offset="0.4833" style="stop-color:#710000"/>
		<stop  offset="0.6389" style="stop-color:#540000"/>
		<stop  offset="0.7814" style="stop-color:#3B0000"/>
		<stop  offset="0.9063" style="stop-color:#180000"/>
		<stop  offset="1" style="stop-color:#000000"/>
	</linearGradient>
	<polygon class="st22" points="332.3,81.3 332.3,81.3 332.3,81.3 	"/>
	<linearGradient id="SVGID_24_" gradientUnits="userSpaceOnUse" x1="251.6209" y1="54.2142" x2="251.7338" y2="54.2075">
		<stop  offset="0" style="stop-color:#EE3124"/>
		<stop  offset="0.1446" style="stop-color:#C1231B"/>
		<stop  offset="0.317" style="stop-color:#941109"/>
		<stop  offset="0.4833" style="stop-color:#710000"/>
		<stop  offset="0.6389" style="stop-color:#540000"/>
		<stop  offset="0.7814" style="stop-color:#3B0000"/>
		<stop  offset="0.9063" style="stop-color:#180000"/>
		<stop  offset="1" style="stop-color:#000000"/>
	</linearGradient>
	<polygon class="st23" points="251.6,54.2 251.6,54.2 251.7,54.2 	"/>
	<linearGradient id="SVGID_25_" gradientUnits="userSpaceOnUse" x1="160.5862" y1="23.6302" x2="160.6991" y2="23.6234">
		<stop  offset="0" style="stop-color:#EE3124"/>
		<stop  offset="0.1446" style="stop-color:#C1231B"/>
		<stop  offset="0.317" style="stop-color:#941109"/>
		<stop  offset="0.4833" style="stop-color:#710000"/>
		<stop  offset="0.6389" style="stop-color:#540000"/>
		<stop  offset="0.7814" style="stop-color:#3B0000"/>
		<stop  offset="0.9063" style="stop-color:#180000"/>
		<stop  offset="1" style="stop-color:#000000"/>
	</linearGradient>
	<polygon class="st24" points="160.6,23.6 160.6,23.6 160.7,23.6 	"/>
	<linearGradient id="SVGID_26_" gradientUnits="userSpaceOnUse" x1="358.4229" y1="90.0825" x2="358.472" y2="90.0796">
		<stop  offset="0" style="stop-color:#EE3124"/>
		<stop  offset="0.1446" style="stop-color:#C1231B"/>
		<stop  offset="0.317" style="stop-color:#941109"/>
		<stop  offset="0.4833" style="stop-color:#710000"/>
		<stop  offset="0.6389" style="stop-color:#540000"/>
		<stop  offset="0.7814" style="stop-color:#3B0000"/>
		<stop  offset="0.9063" style="stop-color:#180000"/>
		<stop  offset="1" style="stop-color:#000000"/>
	</linearGradient>
	<polygon class="st25" points="358.4,90.1 358.4,90.1 358.5,90.1 	"/>
</g>
<path class="st26" d="M395.2,288.5"/>
<linearGradient id="SVGID_27_" gradientUnits="userSpaceOnUse" x1="-7.8003" y1="403.9406" x2="489.3903" y2="263.6294">
	<stop  offset="0" style="stop-color:#EE3124"/>
	<stop  offset="0.1107" style="stop-color:#DC2C21"/>
	<stop  offset="0.339" style="stop-color:#B31E17"/>
	<stop  offset="0.6658" style="stop-color:#740000"/>
	<stop  offset="1" style="stop-color:#000000"/>
</linearGradient>
<polygon class="st27" points="496.2,256.9 470,263.3 476,250 466.7,246.8 455.8,249.5 457.8,243.8 428.6,233.8 417.8,236.4 
	419.8,230.8 391.4,221.2 96.1,306.9 97.7,369.7 218.8,400.4 470.5,337.5 471,337.7 503.9,329.6 525.3,266.8 "/>
<path class="st28" d="M393.4,281.6l-10.6-3.6L398,233l10.6,3.6L393.4,281.6 M399.4,293.3l21.3-62.3l-28.8-9.8l-21.3,62.3
	L399.4,293.3z"/>
<polygon class="st28" points="408.2,296.3 411.2,287.7 431.1,294.5 436.4,279 416.5,272.2 429.5,234.1 458.4,244 455.4,252.6 
	435.7,245.9 428.5,266.7 448.3,273.5 437.1,306.2 "/>
<polygon class="st28" points="446,309.2 467.3,247 476.4,250.1 458.1,303.7 471.8,308.4 468.9,317.1 "/>
<path class="st28" d="M498,317.3l-10.6-3.6l15.3-44.9l10.6,3.6L498,317.3 M504.1,329.1l21.2-62.2l-28.8-9.9l-21.3,62.3L504.1,329.1z
	"/>
</svg>
