<?xml version="1.0" encoding="utf-8"?>
<!-- Generator: Adobe Illustrator 22.0.0, SVG Export Plug-In . SVG Version: 6.00 Build 0)  -->
<svg version="1.1" id="Layer_1" xmlns="http://www.w3.org/2000/svg" xmlns:xlink="http://www.w3.org/1999/xlink" x="0px" y="0px"
	 viewBox="0 0 841.9 595.3" style="enable-background:new 0 0 841.9 595.3;" xml:space="preserve">
<style type="text/css">
	.st0{fill:url(#SVGID_1_);}
	.st1{fill:url(#SVGID_2_);}
	.st2{fill:url(#SVGID_3_);}
	.st3{fill:url(#SVGID_4_);}
	.st4{fill:url(#SVGID_5_);}
	.st5{fill:url(#SVGID_6_);}
	.st6{fill:url(#SVGID_7_);}
	.st7{fill:url(#SVGID_8_);}
	.st8{fill:url(#SVGID_9_);}
	.st9{fill:url(#SVGID_10_);}
	.st10{fill:url(#SVGID_11_);}
	.st11{fill:url(#SVGID_12_);}
	.st12{fill:url(#SVGID_13_);}
	.st13{fill:url(#SVGID_14_);}
	.st14{fill:url(#SVGID_15_);}
	.st15{fill:url(#SVGID_16_);}
	.st16{fill:url(#SVGID_17_);}
	.st17{fill:url(#SVGID_18_);}
	.st18{fill:url(#SVGID_19_);}
	.st19{fill:url(#SVGID_20_);}
	.st20{fill:url(#SVGID_21_);}
	.st21{fill:url(#SVGID_22_);}
	.st22{fill:url(#SVGID_23_);}
	.st23{fill:url(#SVGID_24_);}
	.st24{fill:url(#SVGID_25_);}
	.st25{fill:url(#SVGID_26_);}
	.st26{fill:none;stroke:#FFFFFF;stroke-width:0.6687;}
	.st27{fill:url(#SVGID_27_);}
	.st28{fill:#FFFFFF;}
</style>
<g>
	<linearGradient id="SVGID_1_" gradientUnits="userSpaceOnUse" x1="109.0255" y1="25.0882" x2="109.0335" y2="25.0878">
		<stop  offset="0" style="stop-color:#EE3124"/>
		<stop  offset="0.1446" style="stop-color:#C1231B"/>
		<stop  offset="0.317" style="stop-color:#941109"/>
		<stop  offset="0.4833" style="stop-color:#710000"/>
		<stop  offset="0.6389" style="stop-color:#540000"/>
		<stop  offset="0.7814" style="stop-color:#3B0000"/>
		<stop  offset="0.9063" style="stop-color:#180000"/>
		<stop  offset="1" style="stop-color:#000000"/>
	</linearGradient>
	<polygon class="st0" points="109,25.1 109,25.1 109,25.1 	"/>
	<linearGradient id="SVGID_2_" gradientUnits="userSpaceOnUse" x1="135.2608" y1="33.9017" x2="135.2698" y2="33.9012">
		<stop  offset="0" style="stop-color:#EE3124"/>
		<stop  offset="0.1446" style="stop-color:#C1231B"/>
		<stop  offset="0.317" style="stop-color:#941109"/>
		<stop  offset="0.4833" style="stop-color:#710000"/>
		<stop  offset="0.6389" style="stop-color:#540000"/>
		<stop  offset="0.7814" style="stop-color:#3B0000"/>
		<stop  offset="0.9063" style="stop-color:#180000"/>
		<stop  offset="1" style="stop-color:#000000"/>
	</linearGradient>
	<polygon class="st1" points="135.3,33.9 135.3,33.9 135.3,33.9 	"/>
	<linearGradient id="SVGID_3_" gradientUnits="userSpaceOnUse" x1="328.7495" y1="98.9184" x2="328.7548" y2="98.9181">
		<stop  offset="0" style="stop-color:#EE3124"/>
		<stop  offset="0.1446" style="stop-color:#C1231B"/>
		<stop  offset="0.317" style="stop-color:#941109"/>
		<stop  offset="0.4833" style="stop-color:#710000"/>
		<stop  offset="0.6389" style="stop-color:#540000"/>
		<stop  offset="0.7814" style="stop-color:#3B0000"/>
		<stop  offset="0.9063" style="stop-color:#180000"/>
		<stop  offset="1" style="stop-color:#000000"/>
	</linearGradient>
	<polygon class="st2" points="328.8,98.9 328.7,98.9 328.8,98.9 	"/>
	<linearGradient id="SVGID_4_" gradientUnits="userSpaceOnUse" x1="804.1631" y1="258.6562" x2="804.1679" y2="258.6559">
		<stop  offset="0" style="stop-color:#EE3124"/>
		<stop  offset="0.1446" style="stop-color:#C1231B"/>
		<stop  offset="0.317" style="stop-color:#941109"/>
		<stop  offset="0.4833" style="stop-color:#710000"/>
		<stop  offset="0.6389" style="stop-color:#540000"/>
		<stop  offset="0.7814" style="stop-color:#3B0000"/>
		<stop  offset="0.9063" style="stop-color:#180000"/>
		<stop  offset="1" style="stop-color:#000000"/>
	</linearGradient>
	<polygon class="st3" points="804.2,258.7 804.2,258.7 804.2,258.7 	"/>
	<linearGradient id="SVGID_5_" gradientUnits="userSpaceOnUse" x1="39.7145" y1="328.0322" x2="833.8923" y2="280.4724">
		<stop  offset="0" style="stop-color:#EE3124"/>
		<stop  offset="0.1446" style="stop-color:#C1231B"/>
		<stop  offset="0.317" style="stop-color:#941109"/>
		<stop  offset="0.4833" style="stop-color:#710000"/>
		<stop  offset="0.6389" style="stop-color:#540000"/>
		<stop  offset="0.7814" style="stop-color:#3B0000"/>
		<stop  offset="0.9063" style="stop-color:#180000"/>
		<stop  offset="1" style="stop-color:#000000"/>
	</linearGradient>
	<polygon class="st4" points="802.9,259.3 787.1,266.5 787,306.4 	"/>
	<linearGradient id="SVGID_6_" gradientUnits="userSpaceOnUse" x1="775.9297" y1="249.1695" x2="775.9421" y2="249.1687">
		<stop  offset="0" style="stop-color:#EE3124"/>
		<stop  offset="0.1446" style="stop-color:#C1231B"/>
		<stop  offset="0.317" style="stop-color:#941109"/>
		<stop  offset="0.4833" style="stop-color:#710000"/>
		<stop  offset="0.6389" style="stop-color:#540000"/>
		<stop  offset="0.7814" style="stop-color:#3B0000"/>
		<stop  offset="0.9063" style="stop-color:#180000"/>
		<stop  offset="1" style="stop-color:#000000"/>
	</linearGradient>
	<polygon class="st5" points="775.9,249.2 775.9,249.2 775.9,249.2 	"/>
	<linearGradient id="SVGID_7_" gradientUnits="userSpaceOnUse" x1="36.2599" y1="270.2766" x2="830.4322" y2="222.7171">
		<stop  offset="0" style="stop-color:#EE3124"/>
		<stop  offset="0.1446" style="stop-color:#C1231B"/>
		<stop  offset="0.317" style="stop-color:#941109"/>
		<stop  offset="0.4833" style="stop-color:#710000"/>
		<stop  offset="0.6389" style="stop-color:#540000"/>
		<stop  offset="0.7814" style="stop-color:#3B0000"/>
		<stop  offset="0.9063" style="stop-color:#180000"/>
		<stop  offset="1" style="stop-color:#000000"/>
	</linearGradient>
	<polygon class="st6" points="640,242.2 654.8,247.2 662.3,224.7 647.5,219.7 	"/>
	<linearGradient id="SVGID_8_" gradientUnits="userSpaceOnUse" x1="639.4369" y1="203.3118" x2="639.4789" y2="203.3092">
		<stop  offset="0" style="stop-color:#EE3124"/>
		<stop  offset="0.1446" style="stop-color:#C1231B"/>
		<stop  offset="0.317" style="stop-color:#941109"/>
		<stop  offset="0.4833" style="stop-color:#710000"/>
		<stop  offset="0.6389" style="stop-color:#540000"/>
		<stop  offset="0.7814" style="stop-color:#3B0000"/>
		<stop  offset="0.9063" style="stop-color:#180000"/>
		<stop  offset="1" style="stop-color:#000000"/>
	</linearGradient>
	<polygon class="st7" points="639.4,203.3 639.4,203.3 639.5,203.3 	"/>
	<linearGradient id="SVGID_9_" gradientUnits="userSpaceOnUse" x1="35.2039" y1="252.7495" x2="829.3871" y2="205.1894">
		<stop  offset="0" style="stop-color:#EE3124"/>
		<stop  offset="0.1446" style="stop-color:#C1231B"/>
		<stop  offset="0.317" style="stop-color:#941109"/>
		<stop  offset="0.4833" style="stop-color:#710000"/>
		<stop  offset="0.6389" style="stop-color:#540000"/>
		<stop  offset="0.7814" style="stop-color:#3B0000"/>
		<stop  offset="0.9063" style="stop-color:#180000"/>
		<stop  offset="1" style="stop-color:#000000"/>
	</linearGradient>
	<polygon class="st8" points="612.4,195 596.6,202.6 596.5,242.3 	"/>
	<linearGradient id="SVGID_10_" gradientUnits="userSpaceOnUse" x1="732.7307" y1="234.6598" x2="732.7564" y2="234.6583">
		<stop  offset="0" style="stop-color:#EE3124"/>
		<stop  offset="0.1446" style="stop-color:#C1231B"/>
		<stop  offset="0.317" style="stop-color:#941109"/>
		<stop  offset="0.4833" style="stop-color:#710000"/>
		<stop  offset="0.6389" style="stop-color:#540000"/>
		<stop  offset="0.7814" style="stop-color:#3B0000"/>
		<stop  offset="0.9063" style="stop-color:#180000"/>
		<stop  offset="1" style="stop-color:#000000"/>
	</linearGradient>
	<polygon class="st9" points="732.7,234.7 732.7,234.7 732.8,234.7 	"/>
	<linearGradient id="SVGID_11_" gradientUnits="userSpaceOnUse" x1="690.9991" y1="220.635" x2="691.0143" y2="220.634">
		<stop  offset="0" style="stop-color:#EE3124"/>
		<stop  offset="0.1446" style="stop-color:#C1231B"/>
		<stop  offset="0.317" style="stop-color:#941109"/>
		<stop  offset="0.4833" style="stop-color:#710000"/>
		<stop  offset="0.6389" style="stop-color:#540000"/>
		<stop  offset="0.7814" style="stop-color:#3B0000"/>
		<stop  offset="0.9063" style="stop-color:#180000"/>
		<stop  offset="1" style="stop-color:#000000"/>
	</linearGradient>
	<polygon class="st10" points="691,220.6 691,220.6 691,220.6 	"/>
	<linearGradient id="SVGID_12_" gradientUnits="userSpaceOnUse" x1="29.1479" y1="151.594" x2="823.3326" y2="104.0338">
		<stop  offset="0" style="stop-color:#EE3124"/>
		<stop  offset="0.1446" style="stop-color:#C1231B"/>
		<stop  offset="0.317" style="stop-color:#941109"/>
		<stop  offset="0.4833" style="stop-color:#710000"/>
		<stop  offset="0.6389" style="stop-color:#540000"/>
		<stop  offset="0.7814" style="stop-color:#3B0000"/>
		<stop  offset="0.9063" style="stop-color:#180000"/>
		<stop  offset="1" style="stop-color:#000000"/>
	</linearGradient>
	<polygon class="st11" points="356.5,108.6 340.6,116.4 340.5,156.3 	"/>
	<linearGradient id="SVGID_13_" gradientUnits="userSpaceOnUse" x1="24.5813" y1="75.2454" x2="818.7481" y2="27.6863">
		<stop  offset="0" style="stop-color:#EE3124"/>
		<stop  offset="0.1446" style="stop-color:#C1231B"/>
		<stop  offset="0.317" style="stop-color:#941109"/>
		<stop  offset="0.4833" style="stop-color:#710000"/>
		<stop  offset="0.6389" style="stop-color:#540000"/>
		<stop  offset="0.7814" style="stop-color:#3B0000"/>
		<stop  offset="0.9063" style="stop-color:#180000"/>
		<stop  offset="1" style="stop-color:#000000"/>
	</linearGradient>
	<polygon class="st12" points="163.4,43.4 147.4,51 147.3,91.4 	"/>
	<linearGradient id="SVGID_14_" gradientUnits="userSpaceOnUse" x1="34.4069" y1="239.4732" x2="828.5563" y2="191.9151">
		<stop  offset="0" style="stop-color:#EE3124"/>
		<stop  offset="0.1446" style="stop-color:#C1231B"/>
		<stop  offset="0.317" style="stop-color:#941109"/>
		<stop  offset="0.4833" style="stop-color:#710000"/>
		<stop  offset="0.6389" style="stop-color:#540000"/>
		<stop  offset="0.7814" style="stop-color:#3B0000"/>
		<stop  offset="0.9063" style="stop-color:#180000"/>
		<stop  offset="1" style="stop-color:#000000"/>
	</linearGradient>
	<polygon class="st13" points="774.3,294 758.3,341.5 745.3,337.1 774.7,249.8 759.9,257.5 740.7,251 733.1,273.6 752,280 
		747.9,292.3 728.9,285.9 719.3,314.7 738.5,321.1 734.3,333.4 702.2,322.6 731.6,235.2 693.2,254.3 677.6,300.7 697.1,307.2 
		692.9,319.5 660.5,308.6 689.8,221.4 674.6,230.9 649.8,305 636.8,300.7 650.6,259.8 635.7,254.8 622,295.7 609,291.3 638.4,203.8 
		620.7,212.6 595.8,286.9 583.6,282.8 583.7,229.9 567.7,277.4 554.8,273.1 584.2,185.5 566.7,194.2 541.7,268.7 500.8,254.9 
		530.2,167.3 516.3,174.2 490.4,251.3 456,239.7 460.2,227.4 481.7,234.7 503,171.2 491,167.1 495,155.4 440,182.7 459.2,189.2 
		443.6,235.6 402.7,221.8 406.8,209.5 435,219 442.3,197 414.2,187.6 432.1,134.2 420.3,140 393.8,219 380.8,214.6 394.6,173.7 
		379.7,168.8 366,209.6 353,205.3 382.5,117.4 364.9,126.2 339.8,200.9 327.6,196.8 327.7,143.9 311.7,191.4 298.8,187.1 
		328.3,99.1 312.8,106.9 294.7,160.7 288.2,158.5 289.2,183.9 275.2,179.2 274.6,153.9 266.9,151.3 259.3,173.8 246.4,169.5 
		275.9,81.5 260.9,89.8 241.7,83.4 234.1,106 253,112.4 248.9,124.7 230,118.3 220.3,147 239.5,153.5 235.4,165.8 203.2,155 
		232.8,66.9 220,76.1 207.1,71.7 181.5,147.7 168.6,143.3 194.1,67.4 181,63 185.1,50.8 172.7,58.3 146.6,135.9 134.4,131.8 
		134.5,79 118.5,126.5 105.6,122.1 135.2,33.9 117.6,42.7 117.6,42.6 92.3,117.7 79.4,113.3 109,25.1 25.6,86 25.6,312.1 
		470.5,423.3 786.4,350.9 774.2,346.8 	"/>
	<linearGradient id="SVGID_15_" gradientUnits="userSpaceOnUse" x1="34.9064" y1="247.7254" x2="829.0852" y2="200.1656">
		<stop  offset="0" style="stop-color:#EE3124"/>
		<stop  offset="0.1446" style="stop-color:#C1231B"/>
		<stop  offset="0.317" style="stop-color:#941109"/>
		<stop  offset="0.4833" style="stop-color:#710000"/>
		<stop  offset="0.6389" style="stop-color:#540000"/>
		<stop  offset="0.7814" style="stop-color:#3B0000"/>
		<stop  offset="0.9063" style="stop-color:#180000"/>
		<stop  offset="1" style="stop-color:#000000"/>
	</linearGradient>
	<polygon class="st14" points="517.9,247 533,252.1 554.4,188.4 539.3,183.4 	"/>
	<linearGradient id="SVGID_16_" gradientUnits="userSpaceOnUse" x1="163.4866" y1="43.3938" x2="163.5228" y2="43.3916">
		<stop  offset="0" style="stop-color:#EE3124"/>
		<stop  offset="0.1446" style="stop-color:#C1231B"/>
		<stop  offset="0.317" style="stop-color:#941109"/>
		<stop  offset="0.4833" style="stop-color:#710000"/>
		<stop  offset="0.6389" style="stop-color:#540000"/>
		<stop  offset="0.7814" style="stop-color:#3B0000"/>
		<stop  offset="0.9063" style="stop-color:#180000"/>
		<stop  offset="1" style="stop-color:#000000"/>
	</linearGradient>
	<polygon class="st15" points="163.5,43.4 163.5,43.4 163.5,43.4 	"/>
	<linearGradient id="SVGID_17_" gradientUnits="userSpaceOnUse" x1="36.4856" y1="188.4554" x2="821.4089" y2="141.4498">
		<stop  offset="0" style="stop-color:#EE3124"/>
		<stop  offset="0.1446" style="stop-color:#C1231B"/>
		<stop  offset="0.317" style="stop-color:#941109"/>
		<stop  offset="0.4833" style="stop-color:#710000"/>
		<stop  offset="0.6389" style="stop-color:#540000"/>
		<stop  offset="0.7814" style="stop-color:#3B0000"/>
		<stop  offset="0.9063" style="stop-color:#180000"/>
		<stop  offset="1" style="stop-color:#000000"/>
	</linearGradient>
	<polygon class="st16" points="441.1,150.3 431.6,178.7 469.6,159.9 	"/>
	<linearGradient id="SVGID_18_" gradientUnits="userSpaceOnUse" x1="30.2094" y1="169.2887" x2="824.3884" y2="121.7288">
		<stop  offset="0" style="stop-color:#EE3124"/>
		<stop  offset="0.1446" style="stop-color:#C1231B"/>
		<stop  offset="0.317" style="stop-color:#941109"/>
		<stop  offset="0.4833" style="stop-color:#710000"/>
		<stop  offset="0.6389" style="stop-color:#540000"/>
		<stop  offset="0.7814" style="stop-color:#3B0000"/>
		<stop  offset="0.9063" style="stop-color:#180000"/>
		<stop  offset="1" style="stop-color:#000000"/>
	</linearGradient>
	<polygon class="st17" points="384,156.2 398.8,161.2 406.3,138.7 391.5,133.7 	"/>
	<linearGradient id="SVGID_19_" gradientUnits="userSpaceOnUse" x1="613.3439" y1="194.5359" x2="613.3553" y2="194.5352">
		<stop  offset="0" style="stop-color:#EE3124"/>
		<stop  offset="0.1446" style="stop-color:#C1231B"/>
		<stop  offset="0.317" style="stop-color:#941109"/>
		<stop  offset="0.4833" style="stop-color:#710000"/>
		<stop  offset="0.6389" style="stop-color:#540000"/>
		<stop  offset="0.7814" style="stop-color:#3B0000"/>
		<stop  offset="0.9063" style="stop-color:#180000"/>
		<stop  offset="1" style="stop-color:#000000"/>
	</linearGradient>
	<polygon class="st18" points="613.3,194.5 613.3,194.5 613.4,194.5 	"/>
	<linearGradient id="SVGID_20_" gradientUnits="userSpaceOnUse" x1="28.2349" y1="136.2256" x2="822.4009" y2="88.6665">
		<stop  offset="0" style="stop-color:#EE3124"/>
		<stop  offset="0.1446" style="stop-color:#C1231B"/>
		<stop  offset="0.317" style="stop-color:#941109"/>
		<stop  offset="0.4833" style="stop-color:#710000"/>
		<stop  offset="0.6389" style="stop-color:#540000"/>
		<stop  offset="0.7814" style="stop-color:#3B0000"/>
		<stop  offset="0.9063" style="stop-color:#180000"/>
		<stop  offset="1" style="stop-color:#000000"/>
	</linearGradient>
	<polygon class="st19" points="299.8,102.9 284.9,97.9 271.1,138.8 286.1,143.8 	"/>
	<linearGradient id="SVGID_21_" gradientUnits="userSpaceOnUse" x1="233.0648" y1="66.7719" x2="233.0991" y2="66.7699">
		<stop  offset="0" style="stop-color:#EE3124"/>
		<stop  offset="0.1446" style="stop-color:#C1231B"/>
		<stop  offset="0.317" style="stop-color:#941109"/>
		<stop  offset="0.4833" style="stop-color:#710000"/>
		<stop  offset="0.6389" style="stop-color:#540000"/>
		<stop  offset="0.7814" style="stop-color:#3B0000"/>
		<stop  offset="0.9063" style="stop-color:#180000"/>
		<stop  offset="1" style="stop-color:#000000"/>
	</linearGradient>
	<polygon class="st20" points="233.1,66.8 233.1,66.8 233.1,66.8 	"/>
	<linearGradient id="SVGID_22_" gradientUnits="userSpaceOnUse" x1="585.1152" y1="185.0596" x2="585.1238" y2="185.0591">
		<stop  offset="0" style="stop-color:#EE3124"/>
		<stop  offset="0.1446" style="stop-color:#C1231B"/>
		<stop  offset="0.317" style="stop-color:#941109"/>
		<stop  offset="0.4833" style="stop-color:#710000"/>
		<stop  offset="0.6389" style="stop-color:#540000"/>
		<stop  offset="0.7814" style="stop-color:#3B0000"/>
		<stop  offset="0.9063" style="stop-color:#180000"/>
		<stop  offset="1" style="stop-color:#000000"/>
	</linearGradient>
	<polygon class="st21" points="585.1,185.1 585.1,185.1 585.1,185.1 	"/>
	<linearGradient id="SVGID_23_" gradientUnits="userSpaceOnUse" x1="356.9673" y1="108.3941" x2="356.973" y2="108.3937">
		<stop  offset="0" style="stop-color:#EE3124"/>
		<stop  offset="0.1446" style="stop-color:#C1231B"/>
		<stop  offset="0.317" style="stop-color:#941109"/>
		<stop  offset="0.4833" style="stop-color:#710000"/>
		<stop  offset="0.6389" style="stop-color:#540000"/>
		<stop  offset="0.7814" style="stop-color:#3B0000"/>
		<stop  offset="0.9063" style="stop-color:#180000"/>
		<stop  offset="1" style="stop-color:#000000"/>
	</linearGradient>
	<polygon class="st22" points="357,108.4 357,108.4 357,108.4 	"/>
	<linearGradient id="SVGID_24_" gradientUnits="userSpaceOnUse" x1="276.2532" y1="81.2997" x2="276.3661" y2="81.293">
		<stop  offset="0" style="stop-color:#EE3124"/>
		<stop  offset="0.1446" style="stop-color:#C1231B"/>
		<stop  offset="0.317" style="stop-color:#941109"/>
		<stop  offset="0.4833" style="stop-color:#710000"/>
		<stop  offset="0.6389" style="stop-color:#540000"/>
		<stop  offset="0.7814" style="stop-color:#3B0000"/>
		<stop  offset="0.9063" style="stop-color:#180000"/>
		<stop  offset="1" style="stop-color:#000000"/>
	</linearGradient>
	<polygon class="st23" points="276.3,81.3 276.3,81.3 276.4,81.3 	"/>
	<linearGradient id="SVGID_25_" gradientUnits="userSpaceOnUse" x1="185.2185" y1="50.7157" x2="185.3315" y2="50.7089">
		<stop  offset="0" style="stop-color:#EE3124"/>
		<stop  offset="0.1446" style="stop-color:#C1231B"/>
		<stop  offset="0.317" style="stop-color:#941109"/>
		<stop  offset="0.4833" style="stop-color:#710000"/>
		<stop  offset="0.6389" style="stop-color:#540000"/>
		<stop  offset="0.7814" style="stop-color:#3B0000"/>
		<stop  offset="0.9063" style="stop-color:#180000"/>
		<stop  offset="1" style="stop-color:#000000"/>
	</linearGradient>
	<polygon class="st24" points="185.2,50.7 185.2,50.7 185.3,50.7 	"/>
	<linearGradient id="SVGID_26_" gradientUnits="userSpaceOnUse" x1="383.0551" y1="117.168" x2="383.1043" y2="117.1651">
		<stop  offset="0" style="stop-color:#EE3124"/>
		<stop  offset="0.1446" style="stop-color:#C1231B"/>
		<stop  offset="0.317" style="stop-color:#941109"/>
		<stop  offset="0.4833" style="stop-color:#710000"/>
		<stop  offset="0.6389" style="stop-color:#540000"/>
		<stop  offset="0.7814" style="stop-color:#3B0000"/>
		<stop  offset="0.9063" style="stop-color:#180000"/>
		<stop  offset="1" style="stop-color:#000000"/>
	</linearGradient>
	<polygon class="st25" points="383.1,117.2 383.1,117.2 383.1,117.2 	"/>
</g>
<path class="st26" d="M419.8,315.6"/>
<linearGradient id="SVGID_27_" gradientUnits="userSpaceOnUse" x1="16.832" y1="431.0261" x2="514.0226" y2="290.7149">
	<stop  offset="0" style="stop-color:#EE3124"/>
	<stop  offset="0.1107" style="stop-color:#DC2C21"/>
	<stop  offset="0.339" style="stop-color:#B31E17"/>
	<stop  offset="0.6658" style="stop-color:#740000"/>
	<stop  offset="1" style="stop-color:#000000"/>
</linearGradient>
<polygon class="st27" points="520.8,284 494.6,290.4 500.6,277 491.4,273.9 480.5,276.6 482.4,270.9 453.2,260.9 442.5,263.5 
	444.4,257.8 416,248.3 120.7,334 122.3,396.8 243.5,427.5 495.1,364.6 495.6,364.7 528.5,356.7 549.9,293.9 "/>
<path class="st28" d="M418,308.7l-10.6-3.6l15.3-44.9l10.6,3.6L418,308.7 M424.1,320.4l21.3-62.3l-28.8-9.8l-21.3,62.3L424.1,320.4z
	"/>
<polygon class="st28" points="432.8,323.4 435.8,314.7 455.7,321.5 461,306 441.1,299.2 454.1,261.2 483,271 480.1,279.7 460.3,273 
	453.2,293.8 473,300.5 461.8,333.3 "/>
<polygon class="st28" points="470.6,336.3 491.9,274.1 501,277.2 482.8,330.8 496.5,335.5 493.5,344.1 "/>
<path class="st28" d="M522.6,344.4l-10.6-3.6l15.3-44.9l10.6,3.6L522.6,344.4 M528.7,356.2l21.2-62.2l-28.8-9.9l-21.3,62.3
	L528.7,356.2z"/>
</svg>
