<?xml version="1.0" encoding="utf-8"?>
<!-- Generator: Adobe Illustrator 22.0.0, SVG Export Plug-In . SVG Version: 6.00 Build 0)  -->
<svg version="1.1" id="Layer_1" xmlns="http://www.w3.org/2000/svg" xmlns:xlink="http://www.w3.org/1999/xlink" x="0px" y="0px"
	 viewBox="0 0 836.4 414" style="enable-background:new 0 0 836.4 414;" xml:space="preserve">
<g>
	<g>
		<polygon points="832.6,260.3 822.3,254.1 788.5,269.6 799.2,250.7 791.4,243.7 775.4,251.7 772.7,241.1 744.2,227.9 702.2,248.7 
			707.4,222.9 698.6,212.5 682,223.1 679.3,212.1 642.2,193.6 622.9,203.2 622.4,189.9 613.7,184 576.3,201.9 591.3,179.8 
			582.8,173.6 563.7,183.1 561.6,172 523.7,153.8 504.8,163.2 503.9,152.8 485.1,140.8 424.1,171.2 415.1,168.1 415.7,166.3 
			456.6,146.2 455.1,134.3 416.3,117.7 403.3,124.1 397.9,117.8 361.9,99.4 342.6,109 341,96.8 333.4,89.8 298.7,106.8 311.9,89 
			302.6,79.5 285.5,87.9 284.4,77.7 245.2,60.2 229.1,68.2 227.2,58.2 198,44.3 185.2,50.7 182.6,43 145.7,26.7 132.7,33.2 
			131.1,25.6 121.9,18.8 87.6,35 100.9,16.6 91,8.4 71.7,18 71.5,7 62.4,-1.2 0.3,84.1 0.3,256.8 544.4,414.8 802.8,354.9 		"/>
	</g>
</g>
<polygon points="512.6,281.8 483.9,288.8 490.4,274.2 480.4,270.8 468.4,273.7 470.6,267.4 438.7,256.5 426.9,259.4 429,253.2 
	397.9,242.8 178.5,297.3 178.5,366.3 353.7,325.2 369.6,330.7 381.4,327.8 380.9,329.2 379.3,334 395.3,339.4 411.2,344.9 
	423.1,341.9 421,348.2 433.6,352.5 446.2,356.8 454.7,354.7 453.2,359.2 469.1,364.6 485,370.1 520.9,361.3 544.4,292.6 "/>
<g>
	<polygon points="375.1,310.8 178.5,366.3 322.9,400 521.1,360.7 	"/>
</g>
<g>
	<path class="st0" d="M639.3,300l15-44.7l-16.2-5.4l-15,44.7l-14.2-4.8l32.4-96.5l44.6,15l-32.4,96.5L639.3,300 M667.3,217
		l-16.2-5.4l-8.3,24.6l16.2,5.4L667.3,217z"/>
	<polygon class="st0" points="665.3,308.7 697.7,212.2 711.8,217 683.9,300 705.2,307.2 700.7,320.6 	"/>
	<polygon class="st0" points="710.8,324 743.2,227.5 778.4,239.3 773.9,252.8 752.9,245.7 744.6,270.5 765.3,277.4 760.7,290.9 
		740.1,283.9 729.5,315.3 750.5,322.4 746,335.8 	"/>
	<polygon class="st0" points="789.5,350.5 789.6,292.7 772.1,344.6 758,339.8 790.4,243.4 803.7,247.8 803.6,306.2 821.2,253.7 
		835.2,258.4 802.8,354.9 	"/>
</g>
<rect x="2.3" y="41.9" transform="matrix(0.3185 -0.9479 0.9479 0.3185 -10.5277 84.115)" class="st0" width="101.8" height="15"/>
<polygon class="st0" points="169.5,49.7 141.6,132.8 127.4,128 155.3,45 141,40.1 145.5,26.7 188.2,41 183.7,54.5 "/>
<polygon class="st0" points="165.3,140.7 197.8,44.2 232.9,56.1 228.4,69.5 207.4,62.5 199.1,87.2 219.8,94.2 215.3,107.6 
	194.6,100.6 184,132 205,139.1 200.5,152.5 "/>
<path class="st0" d="M244,167.2l-0.7-27.6l-8.4-2.8l-8.3,24.6l-14.2-4.8l32.4-96.5l44.6,15L265.3,147l-7.1-2.4l1.1,27.7L244,167.2
	 M270.9,83.8l-16.4-5.5l-15,44.7l16.3,5.5L270.9,83.8z"/>
<polygon class="st0" points="301.3,186.4 301.4,128.7 284,180.6 269.8,175.8 302.2,79.3 315.5,83.8 315.4,142.2 333,89.7 
	347.1,94.4 314.6,190.9 "/>
<path class="st0" d="M359.5,206l15-44.7l-16.2-5.4l-15,44.7l-14.2-4.8l32.4-96.5l44.6,15l-32.4,96.5L359.5,206 M387.4,122.9
	l-16.2-5.4l-8.3,24.6l16.2,5.4L387.4,122.9z"/>
<path class="st0" d="M490.6,250l32.4-96.5l44.7,15l-32.4,96.5L490.6,250 M549.2,177.3l-16.5-5.5l-23.4,69.6l16.5,5.6L549.2,177.3z"
	/>
<polygon class="st0" points="581.2,280.5 581.3,222.7 563.8,274.6 549.7,269.9 582.1,173.4 595.4,177.9 595.3,236.2 612.9,183.7 
	626.9,188.4 594.5,284.9 "/>
<polygon class="st0" points="90.1,115.5 90.2,57.7 72.8,109.6 58.6,104.9 91,8.4 104.3,12.9 104.2,71.2 121.8,18.7 135.8,23.4 
	103.4,119.9 "/>
<polygon class="st0" points="383.4,213.8 387.9,200.4 418.7,210.7 426.7,186.7 396,176.4 415.8,117.5 460.5,132.5 456,146 
	425.4,135.7 414.6,167.9 445.2,178.2 428.2,228.8 "/>
<polygon class="st0" points="441.7,233.4 446.2,220 469.8,227.9 493.1,158.4 480,154 484.5,140.6 511.6,149.7 479.3,246 "/>
<path class="st1" d="M402.1,316.3"/>
<path class="st0" d="M400.1,308.7l-11.6-4l16.7-49.1l11.6,4L400.1,308.7 M406.8,321.6l23.2-68.1l-31.5-10.8l-23.2,68.1L406.8,321.6z
	"/>
<polygon class="st0" points="416.4,324.9 419.6,315.4 441.3,322.8 447.1,305.9 425.4,298.5 439.6,256.8 471.2,267.6 468,277.1 
	446.4,269.7 438.6,292.5 460.2,299.9 448,335.7 "/>
<polygon class="st0" points="457.7,339 480.9,271 490.9,274.4 470.9,332.9 485.9,338.1 482.7,347.5 "/>
<path class="st0" d="M514.5,347.8l-11.6-4l16.8-49.1l11.6,4L514.5,347.8 M521.1,360.7l23.2-68l-31.5-10.8l-23.2,68.1L521.1,360.7z"
	/>
</svg>
